<svg xmlns="http://www.w3.org/2000/svg" xmlns:xlink="http://www.w3.org/1999/xlink" width="1000" zoomAndPan="magnify" viewBox="0 0 750 119.999999" height="160" preserveAspectRatio="xMidYMid meet" version="1.0"><defs><g/><clipPath id="e554e9f12c"><path d="M 13 45 L 136 45 L 136 116.449219 L 13 116.449219 Z M 13 45 " clip-rule="nonzero"/></clipPath><clipPath id="4cdf94cc2c"><path d="M 31 3.199219 L 101 3.199219 L 101 85 L 31 85 Z M 31 3.199219 " clip-rule="nonzero"/></clipPath></defs><g fill="#ffffff" fill-opacity="1"><g transform="translate(152.84884, 75.348043)"><g><path d="M 11.3125 -6.4375 L 27.671875 -6.4375 L 27.671875 0 L 3.21875 0 L 3.21875 -28.3125 L 11.3125 -28.3125 Z M 11.3125 -6.4375 "/></g></g><g transform="translate(181.200577, 75.348043)"><g><path d="M 17.5 0.390625 C 16.175781 0.390625 14.90625 0.320312 13.6875 0.1875 C 12.476562 0.0507812 11.34375 -0.171875 10.28125 -0.484375 C 9.226562 -0.796875 8.273438 -1.21875 7.421875 -1.75 C 6.566406 -2.28125 5.832031 -2.9375 5.21875 -3.71875 C 4.601562 -4.507812 4.128906 -5.441406 3.796875 -6.515625 C 3.460938 -7.597656 3.296875 -8.84375 3.296875 -10.25 L 3.296875 -28.3125 L 11.21875 -28.3125 L 11.21875 -11.046875 C 11.21875 -10.242188 11.320312 -9.546875 11.53125 -8.953125 C 11.738281 -8.367188 12.03125 -7.878906 12.40625 -7.484375 C 12.789062 -7.085938 13.242188 -6.769531 13.765625 -6.53125 C 14.296875 -6.289062 14.875 -6.117188 15.5 -6.015625 C 16.132812 -5.910156 16.800781 -5.859375 17.5 -5.859375 C 18.207031 -5.859375 18.875 -5.910156 19.5 -6.015625 C 20.132812 -6.117188 20.710938 -6.289062 21.234375 -6.53125 C 21.753906 -6.769531 22.203125 -7.085938 22.578125 -7.484375 C 22.960938 -7.878906 23.257812 -8.367188 23.46875 -8.953125 C 23.675781 -9.546875 23.78125 -10.242188 23.78125 -11.046875 L 23.78125 -28.3125 L 31.703125 -28.3125 L 31.703125 -10.25 C 31.703125 -8.84375 31.535156 -7.597656 31.203125 -6.515625 C 30.867188 -5.441406 30.394531 -4.507812 29.78125 -3.71875 C 29.164062 -2.9375 28.429688 -2.28125 27.578125 -1.75 C 26.722656 -1.21875 25.765625 -0.796875 24.703125 -0.484375 C 23.648438 -0.171875 22.515625 0.0507812 21.296875 0.1875 C 20.085938 0.320312 18.820312 0.390625 17.5 0.390625 Z M 17.5 0.390625 "/></g></g><g transform="translate(216.206864, 75.348043)"><g><path d="M 18.03125 0.375 C 16.019531 0.375 14.15625 0.171875 12.4375 -0.234375 C 10.726562 -0.648438 9.1875 -1.257812 7.8125 -2.0625 C 6.445312 -2.863281 5.28125 -3.847656 4.3125 -5.015625 C 3.34375 -6.191406 2.601562 -7.546875 2.09375 -9.078125 C 1.582031 -10.609375 1.328125 -12.304688 1.328125 -14.171875 C 1.328125 -16.035156 1.582031 -17.734375 2.09375 -19.265625 C 2.601562 -20.796875 3.34375 -22.144531 4.3125 -23.3125 C 5.28125 -24.488281 6.445312 -25.472656 7.8125 -26.265625 C 9.1875 -27.066406 10.726562 -27.671875 12.4375 -28.078125 C 14.15625 -28.492188 16.019531 -28.703125 18.03125 -28.703125 C 20.1875 -28.703125 22.175781 -28.46875 24 -28 C 25.820312 -27.539062 27.4375 -26.851562 28.84375 -25.9375 C 30.25 -25.019531 31.421875 -23.894531 32.359375 -22.5625 C 33.296875 -21.226562 33.96875 -19.691406 34.375 -17.953125 L 26.375 -17.953125 C 25.96875 -18.984375 25.367188 -19.828125 24.578125 -20.484375 C 23.796875 -21.148438 22.851562 -21.640625 21.75 -21.953125 C 20.644531 -22.273438 19.40625 -22.4375 18.03125 -22.4375 C 16.65625 -22.4375 15.414062 -22.273438 14.3125 -21.953125 C 13.21875 -21.640625 12.28125 -21.148438 11.5 -20.484375 C 10.71875 -19.816406 10.117188 -18.957031 9.703125 -17.90625 C 9.296875 -16.863281 9.09375 -15.617188 9.09375 -14.171875 C 9.09375 -12.710938 9.296875 -11.457031 9.703125 -10.40625 C 10.117188 -9.363281 10.71875 -8.503906 11.5 -7.828125 C 12.28125 -7.160156 13.21875 -6.664062 14.3125 -6.34375 C 15.414062 -6.03125 16.65625 -5.875 18.03125 -5.875 C 19.613281 -5.875 21.015625 -6.082031 22.234375 -6.5 C 23.460938 -6.925781 24.46875 -7.585938 25.25 -8.484375 C 26.03125 -9.378906 26.554688 -10.523438 26.828125 -11.921875 L 34.65625 -11.921875 C 34.445312 -10.335938 34.035156 -8.898438 33.421875 -7.609375 C 32.804688 -6.316406 32.007812 -5.171875 31.03125 -4.171875 C 30.050781 -3.179688 28.90625 -2.347656 27.59375 -1.671875 C 26.28125 -0.992188 24.816406 -0.484375 23.203125 -0.140625 C 21.597656 0.203125 19.875 0.375 18.03125 0.375 Z M 18.03125 0.375 "/></g></g><g transform="translate(251.921479, 75.348043)"><g><path d="M 3.21875 0 L 3.21875 -28.3125 L 23 -28.3125 C 24.488281 -28.3125 25.800781 -28.175781 26.9375 -27.90625 C 28.082031 -27.632812 29.0625 -27.253906 29.875 -26.765625 C 30.695312 -26.273438 31.367188 -25.703125 31.890625 -25.046875 C 32.410156 -24.398438 32.789062 -23.691406 33.03125 -22.921875 C 33.28125 -22.148438 33.40625 -21.347656 33.40625 -20.515625 C 33.40625 -19.585938 33.300781 -18.757812 33.09375 -18.03125 C 32.894531 -17.300781 32.617188 -16.664062 32.265625 -16.125 C 31.910156 -15.582031 31.5 -15.117188 31.03125 -14.734375 C 30.570312 -14.359375 30.070312 -14.046875 29.53125 -13.796875 C 29 -13.546875 28.457031 -13.359375 27.90625 -13.234375 C 27.351562 -13.117188 26.804688 -13.046875 26.265625 -13.015625 C 26.910156 -12.765625 27.457031 -12.441406 27.90625 -12.046875 C 28.363281 -11.660156 28.738281 -11.21875 29.03125 -10.71875 C 29.320312 -10.226562 29.554688 -9.695312 29.734375 -9.125 C 29.921875 -8.5625 30.070312 -7.96875 30.1875 -7.34375 C 30.3125 -6.71875 30.421875 -6.082031 30.515625 -5.4375 C 30.617188 -4.800781 30.738281 -4.164062 30.875 -3.53125 C 31.007812 -2.90625 31.175781 -2.289062 31.375 -1.6875 C 31.570312 -1.09375 31.835938 -0.53125 32.171875 0 L 23.78125 0 C 23.507812 -0.476562 23.289062 -1.003906 23.125 -1.578125 C 22.957031 -2.148438 22.820312 -2.75 22.71875 -3.375 C 22.613281 -4 22.507812 -4.625 22.40625 -5.25 C 22.3125 -5.882812 22.191406 -6.5 22.046875 -7.09375 C 21.910156 -7.6875 21.726562 -8.238281 21.5 -8.75 C 21.28125 -9.269531 20.984375 -9.722656 20.609375 -10.109375 C 20.242188 -10.492188 19.78125 -10.789062 19.21875 -11 C 18.664062 -11.21875 17.988281 -11.328125 17.1875 -11.328125 L 11.3125 -11.328125 L 11.3125 0 Z M 11.3125 -17 L 21.640625 -17 C 22.640625 -17 23.4375 -17.09375 24.03125 -17.28125 C 24.625 -17.46875 25.050781 -17.757812 25.3125 -18.15625 C 25.582031 -18.5625 25.71875 -19.082031 25.71875 -19.71875 C 25.71875 -20.351562 25.582031 -20.859375 25.3125 -21.234375 C 25.050781 -21.617188 24.625 -21.894531 24.03125 -22.0625 C 23.4375 -22.226562 22.640625 -22.3125 21.640625 -22.3125 L 11.3125 -22.3125 Z M 11.3125 -17 "/></g></g><g transform="translate(286.461762, 75.348043)"><g><path d="M 11.3125 -6.4375 L 28.5 -6.4375 L 28.5 0 L 3.21875 0 L 3.21875 -28.3125 L 27.5625 -28.3125 L 27.5625 -21.921875 L 11.3125 -21.921875 L 11.3125 -17.328125 L 20.984375 -17.328125 L 20.984375 -11.75 L 11.3125 -11.75 Z M 11.3125 -6.4375 "/></g></g><g transform="translate(316.397916, 75.348043)"><g/></g><g transform="translate(326.650024, 75.348043)"><g><path d="M 18.03125 0.375 C 16.019531 0.375 14.15625 0.171875 12.4375 -0.234375 C 10.726562 -0.648438 9.1875 -1.257812 7.8125 -2.0625 C 6.445312 -2.863281 5.28125 -3.847656 4.3125 -5.015625 C 3.34375 -6.191406 2.601562 -7.546875 2.09375 -9.078125 C 1.582031 -10.609375 1.328125 -12.304688 1.328125 -14.171875 C 1.328125 -16.035156 1.582031 -17.734375 2.09375 -19.265625 C 2.601562 -20.796875 3.34375 -22.144531 4.3125 -23.3125 C 5.28125 -24.488281 6.445312 -25.472656 7.8125 -26.265625 C 9.1875 -27.066406 10.726562 -27.671875 12.4375 -28.078125 C 14.15625 -28.492188 16.019531 -28.703125 18.03125 -28.703125 C 20.1875 -28.703125 22.175781 -28.46875 24 -28 C 25.820312 -27.539062 27.4375 -26.851562 28.84375 -25.9375 C 30.25 -25.019531 31.421875 -23.894531 32.359375 -22.5625 C 33.296875 -21.226562 33.96875 -19.691406 34.375 -17.953125 L 26.375 -17.953125 C 25.96875 -18.984375 25.367188 -19.828125 24.578125 -20.484375 C 23.796875 -21.148438 22.851562 -21.640625 21.75 -21.953125 C 20.644531 -22.273438 19.40625 -22.4375 18.03125 -22.4375 C 16.65625 -22.4375 15.414062 -22.273438 14.3125 -21.953125 C 13.21875 -21.640625 12.28125 -21.148438 11.5 -20.484375 C 10.71875 -19.816406 10.117188 -18.957031 9.703125 -17.90625 C 9.296875 -16.863281 9.09375 -15.617188 9.09375 -14.171875 C 9.09375 -12.710938 9.296875 -11.457031 9.703125 -10.40625 C 10.117188 -9.363281 10.71875 -8.503906 11.5 -7.828125 C 12.28125 -7.160156 13.21875 -6.664062 14.3125 -6.34375 C 15.414062 -6.03125 16.65625 -5.875 18.03125 -5.875 C 19.613281 -5.875 21.015625 -6.082031 22.234375 -6.5 C 23.460938 -6.925781 24.46875 -7.585938 25.25 -8.484375 C 26.03125 -9.378906 26.554688 -10.523438 26.828125 -11.921875 L 34.65625 -11.921875 C 34.445312 -10.335938 34.035156 -8.898438 33.421875 -7.609375 C 32.804688 -6.316406 32.007812 -5.171875 31.03125 -4.171875 C 30.050781 -3.179688 28.90625 -2.347656 27.59375 -1.671875 C 26.28125 -0.992188 24.816406 -0.484375 23.203125 -0.140625 C 21.597656 0.203125 19.875 0.375 18.03125 0.375 Z M 18.03125 0.375 "/></g></g><g transform="translate(362.364639, 75.348043)"><g><path d="M 18.03125 0.375 C 16.019531 0.375 14.15625 0.171875 12.4375 -0.234375 C 10.726562 -0.648438 9.1875 -1.257812 7.8125 -2.0625 C 6.445312 -2.863281 5.28125 -3.847656 4.3125 -5.015625 C 3.34375 -6.191406 2.601562 -7.546875 2.09375 -9.078125 C 1.582031 -10.609375 1.328125 -12.304688 1.328125 -14.171875 C 1.328125 -16.035156 1.582031 -17.734375 2.09375 -19.265625 C 2.601562 -20.796875 3.34375 -22.144531 4.3125 -23.3125 C 5.28125 -24.488281 6.445312 -25.472656 7.8125 -26.265625 C 9.1875 -27.066406 10.726562 -27.671875 12.4375 -28.078125 C 14.15625 -28.492188 16.019531 -28.703125 18.03125 -28.703125 C 20.039062 -28.703125 21.90625 -28.492188 23.625 -28.078125 C 25.351562 -27.671875 26.90625 -27.066406 28.28125 -26.265625 C 29.65625 -25.472656 30.820312 -24.488281 31.78125 -23.3125 C 32.75 -22.144531 33.488281 -20.796875 34 -19.265625 C 34.519531 -17.734375 34.78125 -16.035156 34.78125 -14.171875 C 34.78125 -12.304688 34.519531 -10.609375 34 -9.078125 C 33.488281 -7.546875 32.75 -6.191406 31.78125 -5.015625 C 30.820312 -3.847656 29.65625 -2.863281 28.28125 -2.0625 C 26.90625 -1.257812 25.351562 -0.648438 23.625 -0.234375 C 21.90625 0.171875 20.039062 0.375 18.03125 0.375 Z M 18.03125 -5.875 C 19.414062 -5.875 20.660156 -6.03125 21.765625 -6.34375 C 22.867188 -6.664062 23.8125 -7.160156 24.59375 -7.828125 C 25.382812 -8.503906 25.988281 -9.363281 26.40625 -10.40625 C 26.820312 -11.457031 27.03125 -12.710938 27.03125 -14.171875 C 27.03125 -15.617188 26.820312 -16.863281 26.40625 -17.90625 C 25.988281 -18.957031 25.382812 -19.816406 24.59375 -20.484375 C 23.8125 -21.148438 22.867188 -21.640625 21.765625 -21.953125 C 20.660156 -22.273438 19.414062 -22.4375 18.03125 -22.4375 C 16.65625 -22.4375 15.414062 -22.273438 14.3125 -21.953125 C 13.21875 -21.640625 12.28125 -21.148438 11.5 -20.484375 C 10.71875 -19.816406 10.117188 -18.957031 9.703125 -17.90625 C 9.296875 -16.863281 9.09375 -15.617188 9.09375 -14.171875 C 9.09375 -12.710938 9.296875 -11.457031 9.703125 -10.40625 C 10.117188 -9.363281 10.71875 -8.503906 11.5 -7.828125 C 12.28125 -7.160156 13.21875 -6.664062 14.3125 -6.34375 C 15.414062 -6.03125 16.65625 -5.875 18.03125 -5.875 Z M 18.03125 -5.875 "/></g></g><g transform="translate(398.452057, 75.348043)"><g><path d="M 3.21875 0 L 3.21875 -28.3125 L 16.359375 -28.3125 L 21.953125 -10.421875 L 27.625 -28.3125 L 40.71875 -28.3125 L 40.71875 0 L 32.859375 0 L 32.859375 -21.609375 L 32.5 -21.609375 L 25.359375 0 L 18.578125 0 L 11.5 -21.609375 L 11.109375 -21.609375 L 11.109375 0 Z M 3.21875 0 "/></g></g><g transform="translate(442.405638, 75.348043)"><g/></g><g transform="translate(452.657746, 75.348043)"><g><path d="M 11.3125 -6.4375 L 27.671875 -6.4375 L 27.671875 0 L 3.21875 0 L 3.21875 -28.3125 L 11.3125 -28.3125 Z M 11.3125 -6.4375 "/></g></g><g transform="translate(481.009483, 75.348043)"><g><path d="M 3.21875 0 L 3.21875 -28.3125 L 11.3125 -28.3125 L 11.3125 0 Z M 3.21875 0 "/></g></g><g transform="translate(495.548836, 75.348043)"><g><path d="M 18.03125 0.375 C 16.019531 0.375 14.15625 0.171875 12.4375 -0.234375 C 10.726562 -0.648438 9.1875 -1.257812 7.8125 -2.0625 C 6.445312 -2.863281 5.28125 -3.847656 4.3125 -5.015625 C 3.34375 -6.191406 2.601562 -7.546875 2.09375 -9.078125 C 1.582031 -10.609375 1.328125 -12.304688 1.328125 -14.171875 C 1.328125 -16.035156 1.582031 -17.734375 2.09375 -19.265625 C 2.601562 -20.796875 3.34375 -22.144531 4.3125 -23.3125 C 5.28125 -24.488281 6.445312 -25.472656 7.8125 -26.265625 C 9.1875 -27.066406 10.726562 -27.671875 12.4375 -28.078125 C 14.15625 -28.492188 16.019531 -28.703125 18.03125 -28.703125 C 20.1875 -28.703125 22.175781 -28.46875 24 -28 C 25.820312 -27.539062 27.4375 -26.851562 28.84375 -25.9375 C 30.25 -25.019531 31.421875 -23.894531 32.359375 -22.5625 C 33.296875 -21.226562 33.96875 -19.691406 34.375 -17.953125 L 26.375 -17.953125 C 25.96875 -18.984375 25.367188 -19.828125 24.578125 -20.484375 C 23.796875 -21.148438 22.851562 -21.640625 21.75 -21.953125 C 20.644531 -22.273438 19.40625 -22.4375 18.03125 -22.4375 C 16.65625 -22.4375 15.414062 -22.273438 14.3125 -21.953125 C 13.21875 -21.640625 12.28125 -21.148438 11.5 -20.484375 C 10.71875 -19.816406 10.117188 -18.957031 9.703125 -17.90625 C 9.296875 -16.863281 9.09375 -15.617188 9.09375 -14.171875 C 9.09375 -12.710938 9.296875 -11.457031 9.703125 -10.40625 C 10.117188 -9.363281 10.71875 -8.503906 11.5 -7.828125 C 12.28125 -7.160156 13.21875 -6.664062 14.3125 -6.34375 C 15.414062 -6.03125 16.65625 -5.875 18.03125 -5.875 C 19.613281 -5.875 21.015625 -6.082031 22.234375 -6.5 C 23.460938 -6.925781 24.46875 -7.585938 25.25 -8.484375 C 26.03125 -9.378906 26.554688 -10.523438 26.828125 -11.921875 L 34.65625 -11.921875 C 34.445312 -10.335938 34.035156 -8.898438 33.421875 -7.609375 C 32.804688 -6.316406 32.007812 -5.171875 31.03125 -4.171875 C 30.050781 -3.179688 28.90625 -2.347656 27.59375 -1.671875 C 26.28125 -0.992188 24.816406 -0.484375 23.203125 -0.140625 C 21.597656 0.203125 19.875 0.375 18.03125 0.375 Z M 18.03125 0.375 "/></g></g><g transform="translate(531.263451, 75.348043)"><g><path d="M 3.21875 0 L 3.21875 -28.3125 L 11.3125 -28.3125 L 11.3125 0 Z M 3.21875 0 "/></g></g><g transform="translate(545.802804, 75.348043)"><g><path d="M 27.4375 -28.3125 L 27.4375 -21.921875 L 18.046875 -21.921875 L 18.046875 0 L 10.046875 0 L 10.046875 -21.921875 L 0.65625 -21.921875 L 0.65625 -28.3125 Z M 27.4375 -28.3125 "/></g></g><g transform="translate(573.893578, 75.348043)"><g><path d="M 25.625 0 L 23.65625 -5.234375 L 10.875 -5.234375 L 8.90625 0 L 0.59375 0 L 12.078125 -28.3125 L 22.5 -28.3125 L 33.90625 0 Z M 13.15625 -11.28125 L 21.390625 -11.28125 L 17.46875 -21.703125 L 17.078125 -21.703125 Z M 13.15625 -11.28125 "/></g></g><g transform="translate(608.39658, 75.348043)"><g><path d="M 34.65625 -11.921875 C 34.40625 -10.035156 33.867188 -8.351562 33.046875 -6.875 C 32.222656 -5.394531 31.140625 -4.132812 29.796875 -3.09375 C 28.460938 -2.050781 26.90625 -1.238281 25.125 -0.65625 C 23.34375 -0.0820312 21.378906 0.25 19.234375 0.34375 L 17.953125 2.15625 C 18.085938 2.144531 18.226562 2.128906 18.375 2.109375 C 18.519531 2.097656 18.65625 2.09375 18.78125 2.09375 C 19.375 2.09375 19.914062 2.179688 20.40625 2.359375 C 20.90625 2.546875 21.335938 2.800781 21.703125 3.125 C 22.066406 3.457031 22.347656 3.847656 22.546875 4.296875 C 22.742188 4.753906 22.84375 5.253906 22.84375 5.796875 C 22.84375 6.335938 22.742188 6.84375 22.546875 7.3125 C 22.347656 7.789062 22.039062 8.207031 21.625 8.5625 C 21.21875 8.925781 20.707031 9.210938 20.09375 9.421875 C 19.476562 9.628906 18.757812 9.734375 17.9375 9.734375 C 17.457031 9.734375 16.941406 9.691406 16.390625 9.609375 C 15.835938 9.535156 15.242188 9.414062 14.609375 9.25 L 14.609375 6.109375 C 15.316406 6.410156 15.9375 6.628906 16.46875 6.765625 C 17.007812 6.898438 17.476562 6.96875 17.875 6.96875 C 18.394531 6.96875 18.78125 6.859375 19.03125 6.640625 C 19.289062 6.429688 19.421875 6.148438 19.421875 5.796875 C 19.421875 5.460938 19.34375 5.1875 19.1875 4.96875 C 19.03125 4.757812 18.820312 4.601562 18.5625 4.5 C 18.3125 4.394531 18.050781 4.34375 17.78125 4.34375 C 17.59375 4.34375 17.414062 4.363281 17.25 4.40625 C 17.082031 4.445312 16.925781 4.515625 16.78125 4.609375 L 14.28125 2.734375 L 15.828125 0.28125 C 14.066406 0.144531 12.4375 -0.164062 10.9375 -0.65625 C 9.445312 -1.144531 8.109375 -1.800781 6.921875 -2.625 C 5.734375 -3.445312 4.722656 -4.425781 3.890625 -5.5625 C 3.054688 -6.695312 2.421875 -7.984375 1.984375 -9.421875 C 1.546875 -10.859375 1.328125 -12.441406 1.328125 -14.171875 C 1.328125 -16.035156 1.582031 -17.734375 2.09375 -19.265625 C 2.601562 -20.796875 3.34375 -22.144531 4.3125 -23.3125 C 5.28125 -24.488281 6.445312 -25.472656 7.8125 -26.265625 C 9.1875 -27.066406 10.726562 -27.671875 12.4375 -28.078125 C 14.15625 -28.492188 16.019531 -28.703125 18.03125 -28.703125 C 20.1875 -28.703125 22.175781 -28.46875 24 -28 C 25.820312 -27.539062 27.4375 -26.851562 28.84375 -25.9375 C 30.25 -25.019531 31.421875 -23.894531 32.359375 -22.5625 C 33.296875 -21.226562 33.96875 -19.691406 34.375 -17.953125 L 26.375 -17.953125 C 25.96875 -18.984375 25.367188 -19.828125 24.578125 -20.484375 C 23.796875 -21.148438 22.851562 -21.640625 21.75 -21.953125 C 20.644531 -22.273438 19.40625 -22.4375 18.03125 -22.4375 C 16.65625 -22.4375 15.414062 -22.273438 14.3125 -21.953125 C 13.21875 -21.640625 12.28125 -21.148438 11.5 -20.484375 C 10.71875 -19.816406 10.117188 -18.957031 9.703125 -17.90625 C 9.296875 -16.863281 9.09375 -15.617188 9.09375 -14.171875 C 9.09375 -12.710938 9.296875 -11.457031 9.703125 -10.40625 C 10.117188 -9.363281 10.71875 -8.503906 11.5 -7.828125 C 12.28125 -7.160156 13.21875 -6.664062 14.3125 -6.34375 C 15.414062 -6.03125 16.65625 -5.875 18.03125 -5.875 C 19.613281 -5.875 21.015625 -6.082031 22.234375 -6.5 C 23.460938 -6.925781 24.46875 -7.585938 25.25 -8.484375 C 26.03125 -9.378906 26.554688 -10.523438 26.828125 -11.921875 Z M 34.65625 -11.921875 "/></g></g><g transform="translate(644.111195, 75.348043)"><g><path d="M 20.875 -31.140625 C 20.207031 -31.140625 19.644531 -31.203125 19.1875 -31.328125 C 18.738281 -31.460938 18.363281 -31.628906 18.0625 -31.828125 C 17.757812 -32.035156 17.492188 -32.253906 17.265625 -32.484375 C 17.046875 -32.710938 16.84375 -32.925781 16.65625 -33.125 C 16.476562 -33.320312 16.285156 -33.484375 16.078125 -33.609375 C 15.878906 -33.734375 15.640625 -33.796875 15.359375 -33.796875 C 15.015625 -33.796875 14.734375 -33.6875 14.515625 -33.46875 C 14.304688 -33.257812 14.15625 -32.972656 14.0625 -32.609375 C 13.96875 -32.242188 13.921875 -31.835938 13.921875 -31.390625 L 9.953125 -31.390625 C 9.953125 -32.179688 10.066406 -32.90625 10.296875 -33.5625 C 10.535156 -34.226562 10.878906 -34.800781 11.328125 -35.28125 C 11.785156 -35.769531 12.335938 -36.148438 12.984375 -36.421875 C 13.628906 -36.691406 14.363281 -36.828125 15.1875 -36.828125 C 15.8125 -36.828125 16.347656 -36.773438 16.796875 -36.671875 C 17.253906 -36.566406 17.644531 -36.425781 17.96875 -36.25 C 18.289062 -36.070312 18.5625 -35.882812 18.78125 -35.6875 C 18.988281 -35.519531 19.171875 -35.34375 19.328125 -35.15625 C 19.492188 -34.976562 19.648438 -34.816406 19.796875 -34.671875 C 19.953125 -34.523438 20.113281 -34.40625 20.28125 -34.3125 C 20.457031 -34.226562 20.65625 -34.1875 20.875 -34.1875 C 21.1875 -34.1875 21.429688 -34.285156 21.609375 -34.484375 C 21.796875 -34.679688 21.925781 -34.957031 22 -35.3125 C 22.082031 -35.675781 22.125 -36.101562 22.125 -36.59375 L 26.171875 -36.59375 C 26.171875 -35.832031 26.054688 -35.117188 25.828125 -34.453125 C 25.609375 -33.796875 25.273438 -33.21875 24.828125 -32.71875 C 24.390625 -32.226562 23.835938 -31.84375 23.171875 -31.5625 C 22.515625 -31.28125 21.75 -31.140625 20.875 -31.140625 Z M 18.03125 0.375 C 16.019531 0.375 14.15625 0.171875 12.4375 -0.234375 C 10.726562 -0.648438 9.1875 -1.257812 7.8125 -2.0625 C 6.445312 -2.863281 5.28125 -3.847656 4.3125 -5.015625 C 3.34375 -6.191406 2.601562 -7.546875 2.09375 -9.078125 C 1.582031 -10.609375 1.328125 -12.304688 1.328125 -14.171875 C 1.328125 -16.035156 1.582031 -17.734375 2.09375 -19.265625 C 2.601562 -20.796875 3.34375 -22.144531 4.3125 -23.3125 C 5.28125 -24.488281 6.445312 -25.472656 7.8125 -26.265625 C 9.1875 -27.066406 10.726562 -27.671875 12.4375 -28.078125 C 14.15625 -28.492188 16.019531 -28.703125 18.03125 -28.703125 C 20.039062 -28.703125 21.90625 -28.492188 23.625 -28.078125 C 25.351562 -27.671875 26.90625 -27.066406 28.28125 -26.265625 C 29.65625 -25.472656 30.820312 -24.488281 31.78125 -23.3125 C 32.75 -22.144531 33.488281 -20.796875 34 -19.265625 C 34.519531 -17.734375 34.78125 -16.035156 34.78125 -14.171875 C 34.78125 -12.304688 34.519531 -10.609375 34 -9.078125 C 33.488281 -7.546875 32.75 -6.191406 31.78125 -5.015625 C 30.820312 -3.847656 29.65625 -2.863281 28.28125 -2.0625 C 26.90625 -1.257812 25.351562 -0.648438 23.625 -0.234375 C 21.90625 0.171875 20.039062 0.375 18.03125 0.375 Z M 18.03125 -5.875 C 19.414062 -5.875 20.660156 -6.03125 21.765625 -6.34375 C 22.867188 -6.664062 23.8125 -7.160156 24.59375 -7.828125 C 25.382812 -8.503906 25.988281 -9.363281 26.40625 -10.40625 C 26.820312 -11.457031 27.03125 -12.710938 27.03125 -14.171875 C 27.03125 -15.617188 26.820312 -16.863281 26.40625 -17.90625 C 25.988281 -18.957031 25.382812 -19.816406 24.59375 -20.484375 C 23.8125 -21.148438 22.867188 -21.640625 21.765625 -21.953125 C 20.660156 -22.273438 19.414062 -22.4375 18.03125 -22.4375 C 16.65625 -22.4375 15.414062 -22.273438 14.3125 -21.953125 C 13.21875 -21.640625 12.28125 -21.148438 11.5 -20.484375 C 10.71875 -19.816406 10.117188 -18.957031 9.703125 -17.90625 C 9.296875 -16.863281 9.09375 -15.617188 9.09375 -14.171875 C 9.09375 -12.710938 9.296875 -11.457031 9.703125 -10.40625 C 10.117188 -9.363281 10.71875 -8.503906 11.5 -7.828125 C 12.28125 -7.160156 13.21875 -6.664062 14.3125 -6.34375 C 15.414062 -6.03125 16.65625 -5.875 18.03125 -5.875 Z M 18.03125 -5.875 "/></g></g><g transform="translate(680.198614, 75.348043)"><g><path d="M 11.3125 -6.4375 L 28.5 -6.4375 L 28.5 0 L 3.21875 0 L 3.21875 -28.3125 L 27.5625 -28.3125 L 27.5625 -21.921875 L 11.3125 -21.921875 L 11.3125 -17.328125 L 20.984375 -17.328125 L 20.984375 -11.75 L 11.3125 -11.75 Z M 11.3125 -6.4375 "/></g></g><g transform="translate(710.134768, 75.348043)"><g><path d="M 16.71875 0.375 C 15.375 0.375 14.085938 0.316406 12.859375 0.203125 C 11.640625 0.0859375 10.488281 -0.101562 9.40625 -0.375 C 8.332031 -0.644531 7.347656 -1.019531 6.453125 -1.5 C 5.554688 -1.976562 4.757812 -2.582031 4.0625 -3.3125 C 3.375 -4.039062 2.796875 -4.921875 2.328125 -5.953125 C 1.859375 -6.984375 1.523438 -8.179688 1.328125 -9.546875 L 9.78125 -9.546875 C 9.882812 -8.929688 10.066406 -8.398438 10.328125 -7.953125 C 10.585938 -7.503906 10.910156 -7.125 11.296875 -6.8125 C 11.679688 -6.5 12.101562 -6.238281 12.5625 -6.03125 C 13.019531 -5.820312 13.492188 -5.660156 13.984375 -5.546875 C 14.484375 -5.441406 14.976562 -5.363281 15.46875 -5.3125 C 15.96875 -5.269531 16.441406 -5.25 16.890625 -5.25 C 17.753906 -5.25 18.546875 -5.316406 19.265625 -5.453125 C 19.992188 -5.585938 20.625 -5.796875 21.15625 -6.078125 C 21.695312 -6.359375 22.113281 -6.710938 22.40625 -7.140625 C 22.695312 -7.578125 22.84375 -8.097656 22.84375 -8.703125 C 22.84375 -9.296875 22.691406 -9.765625 22.390625 -10.109375 C 22.097656 -10.460938 21.660156 -10.722656 21.078125 -10.890625 C 20.492188 -11.066406 19.78125 -11.191406 18.9375 -11.265625 C 18.09375 -11.347656 17.128906 -11.414062 16.046875 -11.46875 C 15.421875 -11.5 14.742188 -11.535156 14.015625 -11.578125 C 13.285156 -11.628906 12.523438 -11.703125 11.734375 -11.796875 C 10.953125 -11.890625 10.164062 -12.023438 9.375 -12.203125 C 8.59375 -12.378906 7.832031 -12.609375 7.09375 -12.890625 C 6.363281 -13.171875 5.679688 -13.519531 5.046875 -13.9375 C 4.421875 -14.351562 3.867188 -14.847656 3.390625 -15.421875 C 2.921875 -16.003906 2.550781 -16.679688 2.28125 -17.453125 C 2.007812 -18.234375 1.875 -19.117188 1.875 -20.109375 C 1.875 -21.367188 2.09375 -22.472656 2.53125 -23.421875 C 2.976562 -24.378906 3.609375 -25.191406 4.421875 -25.859375 C 5.234375 -26.523438 6.207031 -27.066406 7.34375 -27.484375 C 8.488281 -27.898438 9.757812 -28.203125 11.15625 -28.390625 C 12.550781 -28.585938 14.046875 -28.6875 15.640625 -28.6875 C 20.273438 -28.6875 23.816406 -27.941406 26.265625 -26.453125 C 28.710938 -24.960938 30.109375 -22.773438 30.453125 -19.890625 L 22.359375 -19.890625 C 22.210938 -20.441406 21.984375 -20.910156 21.671875 -21.296875 C 21.359375 -21.691406 20.984375 -22.015625 20.546875 -22.265625 C 20.109375 -22.523438 19.628906 -22.722656 19.109375 -22.859375 C 18.585938 -23.003906 18.035156 -23.109375 17.453125 -23.171875 C 16.867188 -23.234375 16.273438 -23.265625 15.671875 -23.265625 C 14.910156 -23.265625 14.1875 -23.21875 13.5 -23.125 C 12.8125 -23.039062 12.203125 -22.894531 11.671875 -22.6875 C 11.148438 -22.488281 10.734375 -22.21875 10.421875 -21.875 C 10.117188 -21.539062 9.96875 -21.113281 9.96875 -20.59375 C 9.96875 -20.125 10.101562 -19.738281 10.375 -19.4375 C 10.644531 -19.144531 11.03125 -18.90625 11.53125 -18.71875 C 12.039062 -18.539062 12.644531 -18.398438 13.34375 -18.296875 C 14.050781 -18.203125 14.84375 -18.117188 15.71875 -18.046875 C 16.59375 -17.984375 17.535156 -17.914062 18.546875 -17.84375 C 19.398438 -17.769531 20.253906 -17.6875 21.109375 -17.59375 C 21.972656 -17.5 22.816406 -17.363281 23.640625 -17.1875 C 24.472656 -17.019531 25.265625 -16.796875 26.015625 -16.515625 C 26.765625 -16.234375 27.453125 -15.878906 28.078125 -15.453125 C 28.710938 -15.023438 29.257812 -14.503906 29.71875 -13.890625 C 30.1875 -13.273438 30.550781 -12.546875 30.8125 -11.703125 C 31.070312 -10.867188 31.203125 -9.898438 31.203125 -8.796875 C 31.203125 -7.347656 30.972656 -6.097656 30.515625 -5.046875 C 30.066406 -4.003906 29.421875 -3.132812 28.578125 -2.4375 C 27.734375 -1.738281 26.71875 -1.179688 25.53125 -0.765625 C 24.34375 -0.359375 23.003906 -0.0664062 21.515625 0.109375 C 20.035156 0.285156 18.4375 0.375 16.71875 0.375 Z M 16.71875 0.375 "/></g></g></g><g clip-path="url(#e554e9f12c)"><path fill="#ffffff" d="M 20.710938 115.550781 C 19.054688 117.214844 16.347656 117.214844 14.691406 115.550781 C 13.027344 113.890625 13.027344 111.191406 14.691406 109.527344 L 57.292969 66.929688 C 58.824219 65.394531 61.265625 65.257812 62.964844 66.609375 L 88.382812 86.949219 L 128.292969 47.046875 C 129.949219 45.382812 132.65625 45.382812 134.3125 47.046875 C 135.976562 48.710938 135.976562 51.410156 134.3125 53.070312 L 91.710938 95.667969 C 90.179688 97.207031 87.738281 97.34375 86.039062 95.988281 L 60.621094 75.648438 Z M 20.710938 115.550781 " fill-opacity="1" fill-rule="evenodd"/></g><path fill="#ffffff" d="M 114.261719 54.316406 C 111.910156 54.316406 110.003906 52.410156 110.003906 50.058594 C 110.003906 47.707031 111.910156 45.796875 114.261719 45.796875 L 131.300781 45.796875 C 133.652344 45.796875 135.5625 47.707031 135.5625 50.058594 L 135.5625 67.097656 C 135.5625 69.449219 133.652344 71.359375 131.300781 71.359375 C 128.953125 71.359375 127.042969 69.449219 127.042969 67.097656 L 127.042969 54.316406 Z M 114.261719 54.316406 " fill-opacity="1" fill-rule="evenodd"/><g clip-path="url(#4cdf94cc2c)"><path fill="#ffffff" d="M 31.941406 84.246094 L 31.941406 66.96875 C 31.941406 66.511719 32.117188 66.082031 32.441406 65.761719 C 32.757812 65.441406 33.191406 65.261719 33.644531 65.261719 L 42.613281 65.261719 C 43.558594 65.261719 44.316406 66.023438 44.316406 66.96875 L 44.316406 71.863281 Z M 50.507812 65.671875 L 50.507812 36.015625 C 50.507812 35.566406 50.683594 35.136719 51.007812 34.8125 C 51.328125 34.496094 51.757812 34.3125 52.214844 34.3125 L 61.183594 34.3125 C 62.125 34.3125 62.886719 35.078125 62.886719 36.015625 L 62.886719 60.339844 C 59.546875 59.441406 55.859375 60.328125 53.277344 62.910156 Z M 69.078125 64.230469 L 69.078125 5.070312 C 69.078125 4.617188 69.253906 4.1875 69.578125 3.867188 C 69.894531 3.550781 70.328125 3.367188 70.78125 3.367188 L 79.75 3.367188 C 80.203125 3.367188 80.636719 3.550781 80.953125 3.867188 C 81.277344 4.1875 81.453125 4.617188 81.453125 5.070312 L 81.453125 74.128906 C 77.289062 70.800781 72.117188 66.660156 69.078125 64.230469 Z M 87.644531 79.082031 L 87.644531 23.640625 C 87.644531 22.695312 88.40625 21.9375 89.351562 21.9375 L 98.320312 21.9375 C 99.261719 21.9375 100.023438 22.695312 100.023438 23.640625 L 100.023438 67.28125 L 87.964844 79.339844 C 87.964844 79.339844 87.851562 79.246094 87.644531 79.082031 Z M 87.644531 79.082031 " fill-opacity="1" fill-rule="evenodd"/></g></svg>