<svg xmlns="http://www.w3.org/2000/svg" xmlns:xlink="http://www.w3.org/1999/xlink" width="250" zoomAndPan="magnify" viewBox="0 0 187.5 30.000001" height="40" preserveAspectRatio="xMidYMid meet" version="1.0"><defs><g/><clipPath id="1a31d3ac74"><path d="M 7 11 L 35.734375 11 L 35.734375 27.554688 L 7 27.554688 Z M 7 11 " clip-rule="nonzero"/></clipPath><clipPath id="85dfdddf77"><path d="M 29 11 L 35.734375 11 L 35.734375 18 L 29 18 Z M 29 11 " clip-rule="nonzero"/></clipPath><clipPath id="ab83ef9928"><path d="M 11 1.425781 L 27 1.425781 L 27 21 L 11 21 Z M 11 1.425781 " clip-rule="nonzero"/></clipPath></defs><g fill="#ffffff" fill-opacity="1"><g transform="translate(39.560703, 18.653145)"><g><path d="M 2.71875 -1.546875 L 6.65625 -1.546875 L 6.65625 0 L 0.78125 0 L 0.78125 -6.796875 L 2.71875 -6.796875 Z M 2.71875 -1.546875 "/></g></g><g transform="translate(46.367189, 18.653145)"><g><path d="M 4.203125 0.09375 C 3.890625 0.09375 3.585938 0.078125 3.296875 0.046875 C 3.003906 0.015625 2.726562 -0.0351562 2.46875 -0.109375 C 2.21875 -0.191406 1.988281 -0.296875 1.78125 -0.421875 C 1.570312 -0.546875 1.394531 -0.703125 1.25 -0.890625 C 1.101562 -1.078125 0.988281 -1.300781 0.90625 -1.5625 C 0.832031 -1.820312 0.796875 -2.125 0.796875 -2.46875 L 0.796875 -6.796875 L 2.703125 -6.796875 L 2.703125 -2.65625 C 2.703125 -2.457031 2.722656 -2.285156 2.765625 -2.140625 C 2.816406 -2.003906 2.890625 -1.890625 2.984375 -1.796875 C 3.078125 -1.703125 3.1875 -1.625 3.3125 -1.5625 C 3.4375 -1.507812 3.570312 -1.46875 3.71875 -1.4375 C 3.875 -1.414062 4.035156 -1.40625 4.203125 -1.40625 C 4.367188 -1.40625 4.523438 -1.414062 4.671875 -1.4375 C 4.828125 -1.46875 4.96875 -1.507812 5.09375 -1.5625 C 5.21875 -1.625 5.328125 -1.703125 5.421875 -1.796875 C 5.515625 -1.890625 5.585938 -2.003906 5.640625 -2.140625 C 5.691406 -2.285156 5.71875 -2.457031 5.71875 -2.65625 L 5.71875 -6.796875 L 7.625 -6.796875 L 7.625 -2.46875 C 7.625 -2.125 7.582031 -1.820312 7.5 -1.5625 C 7.414062 -1.300781 7.300781 -1.078125 7.15625 -0.890625 C 7.007812 -0.703125 6.832031 -0.546875 6.625 -0.421875 C 6.414062 -0.296875 6.1875 -0.191406 5.9375 -0.109375 C 5.6875 -0.0351562 5.414062 0.015625 5.125 0.046875 C 4.832031 0.078125 4.523438 0.09375 4.203125 0.09375 Z M 4.203125 0.09375 "/></g></g><g transform="translate(54.771252, 18.653145)"><g><path d="M 4.328125 0.09375 C 3.847656 0.09375 3.398438 0.046875 2.984375 -0.046875 C 2.578125 -0.148438 2.207031 -0.296875 1.875 -0.484375 C 1.550781 -0.679688 1.269531 -0.921875 1.03125 -1.203125 C 0.800781 -1.484375 0.625 -1.804688 0.5 -2.171875 C 0.375 -2.546875 0.3125 -2.957031 0.3125 -3.40625 C 0.3125 -3.851562 0.375 -4.257812 0.5 -4.625 C 0.625 -4.988281 0.800781 -5.3125 1.03125 -5.59375 C 1.269531 -5.882812 1.550781 -6.125 1.875 -6.3125 C 2.207031 -6.5 2.578125 -6.640625 2.984375 -6.734375 C 3.398438 -6.835938 3.847656 -6.890625 4.328125 -6.890625 C 4.847656 -6.890625 5.328125 -6.832031 5.765625 -6.71875 C 6.203125 -6.613281 6.585938 -6.453125 6.921875 -6.234375 C 7.265625 -6.015625 7.546875 -5.742188 7.765625 -5.421875 C 7.992188 -5.097656 8.160156 -4.726562 8.265625 -4.3125 L 6.34375 -4.3125 C 6.238281 -4.5625 6.09375 -4.765625 5.90625 -4.921875 C 5.71875 -5.078125 5.488281 -5.191406 5.21875 -5.265625 C 4.957031 -5.347656 4.660156 -5.390625 4.328125 -5.390625 C 4.003906 -5.390625 3.707031 -5.347656 3.4375 -5.265625 C 3.175781 -5.191406 2.953125 -5.078125 2.765625 -4.921875 C 2.578125 -4.765625 2.429688 -4.554688 2.328125 -4.296875 C 2.234375 -4.046875 2.1875 -3.75 2.1875 -3.40625 C 2.1875 -3.050781 2.234375 -2.75 2.328125 -2.5 C 2.429688 -2.25 2.578125 -2.039062 2.765625 -1.875 C 2.953125 -1.71875 3.175781 -1.597656 3.4375 -1.515625 C 3.707031 -1.441406 4.003906 -1.40625 4.328125 -1.40625 C 4.710938 -1.40625 5.050781 -1.457031 5.34375 -1.5625 C 5.632812 -1.664062 5.875 -1.820312 6.0625 -2.03125 C 6.25 -2.25 6.375 -2.523438 6.4375 -2.859375 L 8.328125 -2.859375 C 8.273438 -2.484375 8.175781 -2.140625 8.03125 -1.828125 C 7.882812 -1.515625 7.691406 -1.238281 7.453125 -1 C 7.222656 -0.757812 6.945312 -0.554688 6.625 -0.390625 C 6.3125 -0.234375 5.960938 -0.113281 5.578125 -0.03125 C 5.191406 0.0507812 4.773438 0.09375 4.328125 0.09375 Z M 4.328125 0.09375 "/></g></g><g transform="translate(63.345366, 18.653145)"><g><path d="M 0.78125 0 L 0.78125 -6.796875 L 5.53125 -6.796875 C 5.882812 -6.796875 6.195312 -6.765625 6.46875 -6.703125 C 6.75 -6.640625 6.984375 -6.546875 7.171875 -6.421875 C 7.367188 -6.304688 7.53125 -6.171875 7.65625 -6.015625 C 7.78125 -5.859375 7.875 -5.6875 7.9375 -5.5 C 8 -5.320312 8.03125 -5.132812 8.03125 -4.9375 C 8.03125 -4.707031 8.003906 -4.503906 7.953125 -4.328125 C 7.898438 -4.160156 7.832031 -4.007812 7.75 -3.875 C 7.664062 -3.738281 7.566406 -3.625 7.453125 -3.53125 C 7.347656 -3.445312 7.226562 -3.375 7.09375 -3.3125 C 6.96875 -3.257812 6.835938 -3.21875 6.703125 -3.1875 C 6.566406 -3.15625 6.4375 -3.132812 6.3125 -3.125 C 6.46875 -3.0625 6.597656 -2.984375 6.703125 -2.890625 C 6.816406 -2.796875 6.90625 -2.691406 6.96875 -2.578125 C 7.039062 -2.460938 7.097656 -2.332031 7.140625 -2.1875 C 7.191406 -2.050781 7.226562 -1.910156 7.25 -1.765625 C 7.28125 -1.617188 7.304688 -1.46875 7.328125 -1.3125 C 7.359375 -1.15625 7.390625 -1 7.421875 -0.84375 C 7.453125 -0.695312 7.488281 -0.550781 7.53125 -0.40625 C 7.582031 -0.257812 7.648438 -0.125 7.734375 0 L 5.71875 0 C 5.644531 -0.113281 5.585938 -0.238281 5.546875 -0.375 C 5.515625 -0.519531 5.484375 -0.664062 5.453125 -0.8125 C 5.429688 -0.957031 5.40625 -1.101562 5.375 -1.25 C 5.351562 -1.40625 5.328125 -1.554688 5.296875 -1.703125 C 5.265625 -1.847656 5.21875 -1.976562 5.15625 -2.09375 C 5.101562 -2.21875 5.03125 -2.328125 4.9375 -2.421875 C 4.851562 -2.515625 4.742188 -2.585938 4.609375 -2.640625 C 4.484375 -2.691406 4.320312 -2.71875 4.125 -2.71875 L 2.71875 -2.71875 L 2.71875 0 Z M 2.71875 -4.078125 L 5.203125 -4.078125 C 5.441406 -4.078125 5.628906 -4.097656 5.765625 -4.140625 C 5.910156 -4.191406 6.015625 -4.265625 6.078125 -4.359375 C 6.148438 -4.453125 6.1875 -4.578125 6.1875 -4.734375 C 6.1875 -4.890625 6.148438 -5.007812 6.078125 -5.09375 C 6.015625 -5.1875 5.910156 -5.253906 5.765625 -5.296875 C 5.628906 -5.335938 5.441406 -5.359375 5.203125 -5.359375 L 2.71875 -5.359375 Z M 2.71875 -4.078125 "/></g></g><g transform="translate(71.637554, 18.653145)"><g><path d="M 2.71875 -1.546875 L 6.84375 -1.546875 L 6.84375 0 L 0.78125 0 L 0.78125 -6.796875 L 6.625 -6.796875 L 6.625 -5.265625 L 2.71875 -5.265625 L 2.71875 -4.171875 L 5.046875 -4.171875 L 5.046875 -2.828125 L 2.71875 -2.828125 Z M 2.71875 -1.546875 "/></g></g><g transform="translate(78.824415, 18.653145)"><g/></g><g transform="translate(81.285669, 18.653145)"><g><path d="M 4.328125 0.09375 C 3.847656 0.09375 3.398438 0.046875 2.984375 -0.046875 C 2.578125 -0.148438 2.207031 -0.296875 1.875 -0.484375 C 1.550781 -0.679688 1.269531 -0.921875 1.03125 -1.203125 C 0.800781 -1.484375 0.625 -1.804688 0.5 -2.171875 C 0.375 -2.546875 0.3125 -2.957031 0.3125 -3.40625 C 0.3125 -3.851562 0.375 -4.257812 0.5 -4.625 C 0.625 -4.988281 0.800781 -5.3125 1.03125 -5.59375 C 1.269531 -5.882812 1.550781 -6.125 1.875 -6.3125 C 2.207031 -6.5 2.578125 -6.640625 2.984375 -6.734375 C 3.398438 -6.835938 3.847656 -6.890625 4.328125 -6.890625 C 4.847656 -6.890625 5.328125 -6.832031 5.765625 -6.71875 C 6.203125 -6.613281 6.585938 -6.453125 6.921875 -6.234375 C 7.265625 -6.015625 7.546875 -5.742188 7.765625 -5.421875 C 7.992188 -5.097656 8.160156 -4.726562 8.265625 -4.3125 L 6.34375 -4.3125 C 6.238281 -4.5625 6.09375 -4.765625 5.90625 -4.921875 C 5.71875 -5.078125 5.488281 -5.191406 5.21875 -5.265625 C 4.957031 -5.347656 4.660156 -5.390625 4.328125 -5.390625 C 4.003906 -5.390625 3.707031 -5.347656 3.4375 -5.265625 C 3.175781 -5.191406 2.953125 -5.078125 2.765625 -4.921875 C 2.578125 -4.765625 2.429688 -4.554688 2.328125 -4.296875 C 2.234375 -4.046875 2.1875 -3.75 2.1875 -3.40625 C 2.1875 -3.050781 2.234375 -2.75 2.328125 -2.5 C 2.429688 -2.25 2.578125 -2.039062 2.765625 -1.875 C 2.953125 -1.71875 3.175781 -1.597656 3.4375 -1.515625 C 3.707031 -1.441406 4.003906 -1.40625 4.328125 -1.40625 C 4.710938 -1.40625 5.050781 -1.457031 5.34375 -1.5625 C 5.632812 -1.664062 5.875 -1.820312 6.0625 -2.03125 C 6.25 -2.25 6.375 -2.523438 6.4375 -2.859375 L 8.328125 -2.859375 C 8.273438 -2.484375 8.175781 -2.140625 8.03125 -1.828125 C 7.882812 -1.515625 7.691406 -1.238281 7.453125 -1 C 7.222656 -0.757812 6.945312 -0.554688 6.625 -0.390625 C 6.3125 -0.234375 5.960938 -0.113281 5.578125 -0.03125 C 5.191406 0.0507812 4.773438 0.09375 4.328125 0.09375 Z M 4.328125 0.09375 "/></g></g><g transform="translate(89.859783, 18.653145)"><g><path d="M 4.328125 0.09375 C 3.847656 0.09375 3.398438 0.046875 2.984375 -0.046875 C 2.578125 -0.148438 2.207031 -0.296875 1.875 -0.484375 C 1.550781 -0.679688 1.269531 -0.921875 1.03125 -1.203125 C 0.800781 -1.484375 0.625 -1.804688 0.5 -2.171875 C 0.375 -2.546875 0.3125 -2.957031 0.3125 -3.40625 C 0.3125 -3.851562 0.375 -4.257812 0.5 -4.625 C 0.625 -4.988281 0.800781 -5.3125 1.03125 -5.59375 C 1.269531 -5.882812 1.550781 -6.125 1.875 -6.3125 C 2.207031 -6.5 2.578125 -6.640625 2.984375 -6.734375 C 3.398438 -6.835938 3.847656 -6.890625 4.328125 -6.890625 C 4.816406 -6.890625 5.265625 -6.835938 5.671875 -6.734375 C 6.085938 -6.640625 6.460938 -6.5 6.796875 -6.3125 C 7.128906 -6.125 7.410156 -5.882812 7.640625 -5.59375 C 7.867188 -5.3125 8.046875 -4.988281 8.171875 -4.625 C 8.296875 -4.257812 8.359375 -3.851562 8.359375 -3.40625 C 8.359375 -2.957031 8.296875 -2.546875 8.171875 -2.171875 C 8.046875 -1.804688 7.867188 -1.484375 7.640625 -1.203125 C 7.410156 -0.921875 7.128906 -0.679688 6.796875 -0.484375 C 6.460938 -0.296875 6.085938 -0.148438 5.671875 -0.046875 C 5.265625 0.046875 4.816406 0.09375 4.328125 0.09375 Z M 4.328125 -1.40625 C 4.660156 -1.40625 4.957031 -1.441406 5.21875 -1.515625 C 5.488281 -1.597656 5.71875 -1.71875 5.90625 -1.875 C 6.09375 -2.039062 6.238281 -2.25 6.34375 -2.5 C 6.445312 -2.75 6.5 -3.050781 6.5 -3.40625 C 6.5 -3.75 6.445312 -4.046875 6.34375 -4.296875 C 6.238281 -4.554688 6.09375 -4.765625 5.90625 -4.921875 C 5.71875 -5.078125 5.488281 -5.191406 5.21875 -5.265625 C 4.957031 -5.347656 4.660156 -5.390625 4.328125 -5.390625 C 4.003906 -5.390625 3.707031 -5.347656 3.4375 -5.265625 C 3.175781 -5.191406 2.953125 -5.078125 2.765625 -4.921875 C 2.578125 -4.765625 2.429688 -4.554688 2.328125 -4.296875 C 2.234375 -4.046875 2.1875 -3.75 2.1875 -3.40625 C 2.1875 -3.050781 2.234375 -2.75 2.328125 -2.5 C 2.429688 -2.25 2.578125 -2.039062 2.765625 -1.875 C 2.953125 -1.71875 3.175781 -1.597656 3.4375 -1.515625 C 3.707031 -1.441406 4.003906 -1.40625 4.328125 -1.40625 Z M 4.328125 -1.40625 "/></g></g><g transform="translate(98.523396, 18.653145)"><g><path d="M 0.78125 0 L 0.78125 -6.796875 L 3.9375 -6.796875 L 5.28125 -2.5 L 6.640625 -6.796875 L 9.78125 -6.796875 L 9.78125 0 L 7.890625 0 L 7.890625 -5.1875 L 7.8125 -5.1875 L 6.09375 0 L 4.46875 0 L 2.765625 -5.1875 L 2.671875 -5.1875 L 2.671875 0 Z M 0.78125 0 "/></g></g><g transform="translate(109.075463, 18.653145)"><g/></g><g transform="translate(111.536717, 18.653145)"><g><path d="M 2.71875 -1.546875 L 6.65625 -1.546875 L 6.65625 0 L 0.78125 0 L 0.78125 -6.796875 L 2.71875 -6.796875 Z M 2.71875 -1.546875 "/></g></g><g transform="translate(118.343203, 18.653145)"><g><path d="M 0.78125 0 L 0.78125 -6.796875 L 2.71875 -6.796875 L 2.71875 0 Z M 0.78125 0 "/></g></g><g transform="translate(121.833708, 18.653145)"><g><path d="M 4.328125 0.09375 C 3.847656 0.09375 3.398438 0.046875 2.984375 -0.046875 C 2.578125 -0.148438 2.207031 -0.296875 1.875 -0.484375 C 1.550781 -0.679688 1.269531 -0.921875 1.03125 -1.203125 C 0.800781 -1.484375 0.625 -1.804688 0.5 -2.171875 C 0.375 -2.546875 0.3125 -2.957031 0.3125 -3.40625 C 0.3125 -3.851562 0.375 -4.257812 0.5 -4.625 C 0.625 -4.988281 0.800781 -5.3125 1.03125 -5.59375 C 1.269531 -5.882812 1.550781 -6.125 1.875 -6.3125 C 2.207031 -6.5 2.578125 -6.640625 2.984375 -6.734375 C 3.398438 -6.835938 3.847656 -6.890625 4.328125 -6.890625 C 4.847656 -6.890625 5.328125 -6.832031 5.765625 -6.71875 C 6.203125 -6.613281 6.585938 -6.453125 6.921875 -6.234375 C 7.265625 -6.015625 7.546875 -5.742188 7.765625 -5.421875 C 7.992188 -5.097656 8.160156 -4.726562 8.265625 -4.3125 L 6.34375 -4.3125 C 6.238281 -4.5625 6.09375 -4.765625 5.90625 -4.921875 C 5.71875 -5.078125 5.488281 -5.191406 5.21875 -5.265625 C 4.957031 -5.347656 4.660156 -5.390625 4.328125 -5.390625 C 4.003906 -5.390625 3.707031 -5.347656 3.4375 -5.265625 C 3.175781 -5.191406 2.953125 -5.078125 2.765625 -4.921875 C 2.578125 -4.765625 2.429688 -4.554688 2.328125 -4.296875 C 2.234375 -4.046875 2.1875 -3.75 2.1875 -3.40625 C 2.1875 -3.050781 2.234375 -2.75 2.328125 -2.5 C 2.429688 -2.25 2.578125 -2.039062 2.765625 -1.875 C 2.953125 -1.71875 3.175781 -1.597656 3.4375 -1.515625 C 3.707031 -1.441406 4.003906 -1.40625 4.328125 -1.40625 C 4.710938 -1.40625 5.050781 -1.457031 5.34375 -1.5625 C 5.632812 -1.664062 5.875 -1.820312 6.0625 -2.03125 C 6.25 -2.25 6.375 -2.523438 6.4375 -2.859375 L 8.328125 -2.859375 C 8.273438 -2.484375 8.175781 -2.140625 8.03125 -1.828125 C 7.882812 -1.515625 7.691406 -1.238281 7.453125 -1 C 7.222656 -0.757812 6.945312 -0.554688 6.625 -0.390625 C 6.3125 -0.234375 5.960938 -0.113281 5.578125 -0.03125 C 5.191406 0.0507812 4.773438 0.09375 4.328125 0.09375 Z M 4.328125 0.09375 "/></g></g><g transform="translate(130.407822, 18.653145)"><g><path d="M 0.78125 0 L 0.78125 -6.796875 L 2.71875 -6.796875 L 2.71875 0 Z M 0.78125 0 "/></g></g><g transform="translate(133.898327, 18.653145)"><g><path d="M 6.59375 -6.796875 L 6.59375 -5.265625 L 4.328125 -5.265625 L 4.328125 0 L 2.40625 0 L 2.40625 -5.265625 L 0.15625 -5.265625 L 0.15625 -6.796875 Z M 6.59375 -6.796875 "/></g></g><g transform="translate(140.642163, 18.653145)"><g><path d="M 6.15625 0 L 5.6875 -1.265625 L 2.609375 -1.265625 L 2.140625 0 L 0.140625 0 L 2.90625 -6.796875 L 5.40625 -6.796875 L 8.140625 0 Z M 3.15625 -2.703125 L 5.140625 -2.703125 L 4.203125 -5.21875 L 4.109375 -5.21875 Z M 3.15625 -2.703125 "/></g></g><g transform="translate(148.925401, 18.653145)"><g><path d="M 8.328125 -2.859375 C 8.265625 -2.410156 8.132812 -2.007812 7.9375 -1.65625 C 7.738281 -1.300781 7.476562 -1 7.15625 -0.75 C 6.832031 -0.5 6.457031 -0.300781 6.03125 -0.15625 C 5.601562 -0.0195312 5.132812 0.0546875 4.625 0.078125 L 4.3125 0.515625 C 4.34375 0.515625 4.375 0.507812 4.40625 0.5 C 4.445312 0.5 4.484375 0.5 4.515625 0.5 C 4.660156 0.5 4.789062 0.519531 4.90625 0.5625 C 5.019531 0.613281 5.117188 0.675781 5.203125 0.75 C 5.296875 0.832031 5.363281 0.925781 5.40625 1.03125 C 5.457031 1.144531 5.484375 1.265625 5.484375 1.390625 C 5.484375 1.523438 5.457031 1.648438 5.40625 1.765625 C 5.363281 1.878906 5.289062 1.976562 5.1875 2.0625 C 5.09375 2.144531 4.972656 2.210938 4.828125 2.265625 C 4.679688 2.316406 4.507812 2.34375 4.3125 2.34375 C 4.195312 2.34375 4.070312 2.332031 3.9375 2.3125 C 3.800781 2.289062 3.660156 2.257812 3.515625 2.21875 L 3.515625 1.46875 C 3.679688 1.539062 3.828125 1.59375 3.953125 1.625 C 4.085938 1.65625 4.203125 1.671875 4.296875 1.671875 C 4.421875 1.671875 4.515625 1.644531 4.578125 1.59375 C 4.640625 1.539062 4.671875 1.472656 4.671875 1.390625 C 4.671875 1.316406 4.648438 1.253906 4.609375 1.203125 C 4.566406 1.148438 4.515625 1.109375 4.453125 1.078125 C 4.398438 1.054688 4.335938 1.046875 4.265625 1.046875 C 4.222656 1.046875 4.179688 1.050781 4.140625 1.0625 C 4.097656 1.070312 4.0625 1.085938 4.03125 1.109375 L 3.4375 0.65625 L 3.796875 0.0625 C 3.378906 0.03125 2.988281 -0.0390625 2.625 -0.15625 C 2.269531 -0.269531 1.945312 -0.425781 1.65625 -0.625 C 1.375 -0.820312 1.132812 -1.054688 0.9375 -1.328125 C 0.738281 -1.609375 0.582031 -1.921875 0.46875 -2.265625 C 0.363281 -2.609375 0.3125 -2.988281 0.3125 -3.40625 C 0.3125 -3.851562 0.375 -4.257812 0.5 -4.625 C 0.625 -4.988281 0.800781 -5.3125 1.03125 -5.59375 C 1.269531 -5.882812 1.550781 -6.125 1.875 -6.3125 C 2.207031 -6.5 2.578125 -6.640625 2.984375 -6.734375 C 3.398438 -6.835938 3.847656 -6.890625 4.328125 -6.890625 C 4.847656 -6.890625 5.328125 -6.832031 5.765625 -6.71875 C 6.203125 -6.613281 6.585938 -6.453125 6.921875 -6.234375 C 7.265625 -6.015625 7.546875 -5.742188 7.765625 -5.421875 C 7.992188 -5.097656 8.160156 -4.726562 8.265625 -4.3125 L 6.34375 -4.3125 C 6.238281 -4.5625 6.09375 -4.765625 5.90625 -4.921875 C 5.71875 -5.078125 5.488281 -5.191406 5.21875 -5.265625 C 4.957031 -5.347656 4.660156 -5.390625 4.328125 -5.390625 C 4.003906 -5.390625 3.707031 -5.347656 3.4375 -5.265625 C 3.175781 -5.191406 2.953125 -5.078125 2.765625 -4.921875 C 2.578125 -4.765625 2.429688 -4.554688 2.328125 -4.296875 C 2.234375 -4.046875 2.1875 -3.75 2.1875 -3.40625 C 2.1875 -3.050781 2.234375 -2.75 2.328125 -2.5 C 2.429688 -2.25 2.578125 -2.039062 2.765625 -1.875 C 2.953125 -1.71875 3.175781 -1.597656 3.4375 -1.515625 C 3.707031 -1.441406 4.003906 -1.40625 4.328125 -1.40625 C 4.710938 -1.40625 5.050781 -1.457031 5.34375 -1.5625 C 5.632812 -1.664062 5.875 -1.820312 6.0625 -2.03125 C 6.25 -2.25 6.375 -2.523438 6.4375 -2.859375 Z M 8.328125 -2.859375 "/></g></g><g transform="translate(157.499514, 18.653145)"><g><path d="M 5.015625 -7.484375 C 4.859375 -7.484375 4.722656 -7.5 4.609375 -7.53125 C 4.503906 -7.5625 4.414062 -7.597656 4.34375 -7.640625 C 4.269531 -7.691406 4.203125 -7.75 4.140625 -7.8125 C 4.085938 -7.863281 4.039062 -7.910156 4 -7.953125 C 3.957031 -8.003906 3.910156 -8.046875 3.859375 -8.078125 C 3.816406 -8.109375 3.757812 -8.125 3.6875 -8.125 C 3.601562 -8.125 3.535156 -8.097656 3.484375 -8.046875 C 3.429688 -7.992188 3.394531 -7.921875 3.375 -7.828125 C 3.351562 -7.742188 3.34375 -7.648438 3.34375 -7.546875 L 2.390625 -7.546875 C 2.390625 -7.734375 2.414062 -7.90625 2.46875 -8.0625 C 2.53125 -8.21875 2.613281 -8.351562 2.71875 -8.46875 C 2.832031 -8.59375 2.96875 -8.6875 3.125 -8.75 C 3.28125 -8.8125 3.457031 -8.84375 3.65625 -8.84375 C 3.800781 -8.84375 3.925781 -8.828125 4.03125 -8.796875 C 4.144531 -8.773438 4.238281 -8.742188 4.3125 -8.703125 C 4.394531 -8.660156 4.460938 -8.617188 4.515625 -8.578125 C 4.566406 -8.535156 4.609375 -8.492188 4.640625 -8.453125 C 4.679688 -8.410156 4.71875 -8.367188 4.75 -8.328125 C 4.789062 -8.296875 4.832031 -8.269531 4.875 -8.25 C 4.914062 -8.226562 4.960938 -8.21875 5.015625 -8.21875 C 5.085938 -8.21875 5.144531 -8.238281 5.1875 -8.28125 C 5.238281 -8.332031 5.269531 -8.398438 5.28125 -8.484375 C 5.300781 -8.566406 5.3125 -8.671875 5.3125 -8.796875 L 6.28125 -8.796875 C 6.28125 -8.609375 6.253906 -8.4375 6.203125 -8.28125 C 6.148438 -8.125 6.070312 -7.984375 5.96875 -7.859375 C 5.863281 -7.742188 5.726562 -7.648438 5.5625 -7.578125 C 5.40625 -7.515625 5.222656 -7.484375 5.015625 -7.484375 Z M 4.328125 0.09375 C 3.847656 0.09375 3.398438 0.046875 2.984375 -0.046875 C 2.578125 -0.148438 2.207031 -0.296875 1.875 -0.484375 C 1.550781 -0.679688 1.269531 -0.921875 1.03125 -1.203125 C 0.800781 -1.484375 0.625 -1.804688 0.5 -2.171875 C 0.375 -2.546875 0.3125 -2.957031 0.3125 -3.40625 C 0.3125 -3.851562 0.375 -4.257812 0.5 -4.625 C 0.625 -4.988281 0.800781 -5.3125 1.03125 -5.59375 C 1.269531 -5.882812 1.550781 -6.125 1.875 -6.3125 C 2.207031 -6.5 2.578125 -6.640625 2.984375 -6.734375 C 3.398438 -6.835938 3.847656 -6.890625 4.328125 -6.890625 C 4.816406 -6.890625 5.265625 -6.835938 5.671875 -6.734375 C 6.085938 -6.640625 6.460938 -6.5 6.796875 -6.3125 C 7.128906 -6.125 7.410156 -5.882812 7.640625 -5.59375 C 7.867188 -5.3125 8.046875 -4.988281 8.171875 -4.625 C 8.296875 -4.257812 8.359375 -3.851562 8.359375 -3.40625 C 8.359375 -2.957031 8.296875 -2.546875 8.171875 -2.171875 C 8.046875 -1.804688 7.867188 -1.484375 7.640625 -1.203125 C 7.410156 -0.921875 7.128906 -0.679688 6.796875 -0.484375 C 6.460938 -0.296875 6.085938 -0.148438 5.671875 -0.046875 C 5.265625 0.046875 4.816406 0.09375 4.328125 0.09375 Z M 4.328125 -1.40625 C 4.660156 -1.40625 4.957031 -1.441406 5.21875 -1.515625 C 5.488281 -1.597656 5.71875 -1.71875 5.90625 -1.875 C 6.09375 -2.039062 6.238281 -2.25 6.34375 -2.5 C 6.445312 -2.75 6.5 -3.050781 6.5 -3.40625 C 6.5 -3.75 6.445312 -4.046875 6.34375 -4.296875 C 6.238281 -4.554688 6.09375 -4.765625 5.90625 -4.921875 C 5.71875 -5.078125 5.488281 -5.191406 5.21875 -5.265625 C 4.957031 -5.347656 4.660156 -5.390625 4.328125 -5.390625 C 4.003906 -5.390625 3.707031 -5.347656 3.4375 -5.265625 C 3.175781 -5.191406 2.953125 -5.078125 2.765625 -4.921875 C 2.578125 -4.765625 2.429688 -4.554688 2.328125 -4.296875 C 2.234375 -4.046875 2.1875 -3.75 2.1875 -3.40625 C 2.1875 -3.050781 2.234375 -2.75 2.328125 -2.5 C 2.429688 -2.25 2.578125 -2.039062 2.765625 -1.875 C 2.953125 -1.71875 3.175781 -1.597656 3.4375 -1.515625 C 3.707031 -1.441406 4.003906 -1.40625 4.328125 -1.40625 Z M 4.328125 -1.40625 "/></g></g><g transform="translate(166.163128, 18.653145)"><g><path d="M 2.71875 -1.546875 L 6.84375 -1.546875 L 6.84375 0 L 0.78125 0 L 0.78125 -6.796875 L 6.625 -6.796875 L 6.625 -5.265625 L 2.71875 -5.265625 L 2.71875 -4.171875 L 5.046875 -4.171875 L 5.046875 -2.828125 L 2.71875 -2.828125 Z M 2.71875 -1.546875 "/></g></g><g transform="translate(173.349989, 18.653145)"><g><path d="M 4.015625 0.09375 C 3.691406 0.09375 3.382812 0.078125 3.09375 0.046875 C 2.800781 0.0234375 2.523438 -0.015625 2.265625 -0.078125 C 2.003906 -0.148438 1.765625 -0.242188 1.546875 -0.359375 C 1.335938 -0.472656 1.148438 -0.617188 0.984375 -0.796875 C 0.816406 -0.972656 0.675781 -1.179688 0.5625 -1.421875 C 0.445312 -1.671875 0.363281 -1.960938 0.3125 -2.296875 L 2.34375 -2.296875 C 2.375 -2.148438 2.421875 -2.019531 2.484375 -1.90625 C 2.546875 -1.800781 2.625 -1.707031 2.71875 -1.625 C 2.8125 -1.550781 2.910156 -1.488281 3.015625 -1.4375 C 3.128906 -1.394531 3.242188 -1.359375 3.359375 -1.328125 C 3.484375 -1.304688 3.601562 -1.289062 3.71875 -1.28125 C 3.832031 -1.269531 3.945312 -1.265625 4.0625 -1.265625 C 4.269531 -1.265625 4.457031 -1.28125 4.625 -1.3125 C 4.800781 -1.34375 4.953125 -1.390625 5.078125 -1.453125 C 5.210938 -1.523438 5.3125 -1.613281 5.375 -1.71875 C 5.445312 -1.820312 5.484375 -1.945312 5.484375 -2.09375 C 5.484375 -2.226562 5.445312 -2.335938 5.375 -2.421875 C 5.300781 -2.515625 5.195312 -2.582031 5.0625 -2.625 C 4.925781 -2.664062 4.753906 -2.691406 4.546875 -2.703125 C 4.347656 -2.722656 4.117188 -2.738281 3.859375 -2.75 C 3.703125 -2.757812 3.535156 -2.769531 3.359375 -2.78125 C 3.191406 -2.789062 3.015625 -2.804688 2.828125 -2.828125 C 2.640625 -2.859375 2.445312 -2.894531 2.25 -2.9375 C 2.0625 -2.976562 1.878906 -3.03125 1.703125 -3.09375 C 1.523438 -3.164062 1.359375 -3.25 1.203125 -3.34375 C 1.054688 -3.445312 0.925781 -3.566406 0.8125 -3.703125 C 0.695312 -3.847656 0.609375 -4.007812 0.546875 -4.1875 C 0.484375 -4.375 0.453125 -4.585938 0.453125 -4.828125 C 0.453125 -5.128906 0.503906 -5.394531 0.609375 -5.625 C 0.710938 -5.851562 0.863281 -6.046875 1.0625 -6.203125 C 1.257812 -6.367188 1.492188 -6.5 1.765625 -6.59375 C 2.035156 -6.695312 2.335938 -6.769531 2.671875 -6.8125 C 3.015625 -6.863281 3.375 -6.890625 3.75 -6.890625 C 4.863281 -6.890625 5.710938 -6.707031 6.296875 -6.34375 C 6.890625 -5.988281 7.226562 -5.46875 7.3125 -4.78125 L 5.375 -4.78125 C 5.332031 -4.914062 5.273438 -5.03125 5.203125 -5.125 C 5.128906 -5.21875 5.039062 -5.289062 4.9375 -5.34375 C 4.832031 -5.40625 4.71875 -5.453125 4.59375 -5.484375 C 4.46875 -5.523438 4.332031 -5.550781 4.1875 -5.5625 C 4.050781 -5.582031 3.910156 -5.59375 3.765625 -5.59375 C 3.578125 -5.59375 3.398438 -5.582031 3.234375 -5.5625 C 3.078125 -5.539062 2.929688 -5.503906 2.796875 -5.453125 C 2.671875 -5.398438 2.570312 -5.332031 2.5 -5.25 C 2.425781 -5.175781 2.390625 -5.078125 2.390625 -4.953125 C 2.390625 -4.835938 2.421875 -4.742188 2.484375 -4.671875 C 2.554688 -4.597656 2.648438 -4.539062 2.765625 -4.5 C 2.890625 -4.457031 3.035156 -4.421875 3.203125 -4.390625 C 3.378906 -4.367188 3.570312 -4.347656 3.78125 -4.328125 C 3.988281 -4.316406 4.210938 -4.300781 4.453125 -4.28125 C 4.660156 -4.269531 4.867188 -4.25 5.078125 -4.21875 C 5.285156 -4.195312 5.488281 -4.164062 5.6875 -4.125 C 5.882812 -4.09375 6.070312 -4.039062 6.25 -3.96875 C 6.425781 -3.894531 6.59375 -3.804688 6.75 -3.703125 C 6.90625 -3.609375 7.035156 -3.484375 7.140625 -3.328125 C 7.253906 -3.179688 7.34375 -3.007812 7.40625 -2.8125 C 7.46875 -2.613281 7.5 -2.378906 7.5 -2.109375 C 7.5 -1.765625 7.441406 -1.46875 7.328125 -1.21875 C 7.222656 -0.96875 7.066406 -0.753906 6.859375 -0.578125 C 6.660156 -0.410156 6.414062 -0.273438 6.125 -0.171875 C 5.84375 -0.078125 5.523438 -0.0078125 5.171875 0.03125 C 4.816406 0.0703125 4.429688 0.09375 4.015625 0.09375 Z M 4.015625 0.09375 "/></g></g></g><g clip-path="url(#1a31d3ac74)"><path fill="#ffffff" d="M 8.710938 27.3125 C 8.328125 27.695312 7.707031 27.695312 7.324219 27.3125 C 6.941406 26.929688 6.941406 26.308594 7.324219 25.925781 L 17.140625 16.109375 C 17.492188 15.757812 18.054688 15.726562 18.445312 16.039062 L 24.304688 20.722656 L 33.496094 11.53125 C 33.878906 11.144531 34.503906 11.144531 34.886719 11.53125 C 35.269531 11.914062 35.269531 12.535156 34.886719 12.917969 L 25.070312 22.734375 C 24.714844 23.085938 24.152344 23.117188 23.761719 22.804688 L 17.90625 18.121094 Z M 8.710938 27.3125 " fill-opacity="1" fill-rule="evenodd"/></g><g clip-path="url(#85dfdddf77)"><path fill="#ffffff" d="M 30.265625 13.203125 C 29.722656 13.203125 29.285156 12.765625 29.285156 12.222656 C 29.285156 11.683594 29.722656 11.242188 30.265625 11.242188 L 34.191406 11.242188 C 34.734375 11.242188 35.171875 11.683594 35.171875 12.222656 L 35.171875 16.148438 C 35.171875 16.691406 34.734375 17.132812 34.191406 17.132812 C 33.648438 17.132812 33.210938 16.691406 33.210938 16.148438 L 33.210938 13.203125 Z M 30.265625 13.203125 " fill-opacity="1" fill-rule="evenodd"/></g><g clip-path="url(#ab83ef9928)"><path fill="#ffffff" d="M 11.296875 20.101562 L 11.296875 16.121094 C 11.296875 16.015625 11.339844 15.914062 11.414062 15.84375 C 11.488281 15.765625 11.585938 15.726562 11.691406 15.726562 L 13.757812 15.726562 C 13.972656 15.726562 14.148438 15.902344 14.148438 16.121094 L 14.148438 17.246094 Z M 15.578125 15.820312 L 15.578125 8.988281 C 15.578125 8.886719 15.617188 8.785156 15.691406 8.710938 C 15.765625 8.636719 15.863281 8.597656 15.96875 8.597656 L 18.035156 8.597656 C 18.253906 8.597656 18.429688 8.773438 18.429688 8.988281 L 18.429688 14.59375 C 17.660156 14.386719 16.808594 14.589844 16.214844 15.183594 Z M 19.855469 15.488281 L 19.855469 1.859375 C 19.855469 1.753906 19.894531 1.65625 19.96875 1.582031 C 20.042969 1.507812 20.140625 1.464844 20.246094 1.464844 L 22.3125 1.464844 C 22.417969 1.464844 22.519531 1.507812 22.589844 1.582031 C 22.664062 1.65625 22.707031 1.753906 22.707031 1.859375 L 22.707031 17.769531 C 21.746094 17.003906 20.554688 16.050781 19.855469 15.488281 Z M 24.132812 18.910156 L 24.132812 6.136719 C 24.132812 5.917969 24.308594 5.742188 24.523438 5.742188 L 26.589844 5.742188 C 26.808594 5.742188 26.984375 5.917969 26.984375 6.136719 L 26.984375 16.191406 L 24.207031 18.96875 C 24.207031 18.96875 24.179688 18.949219 24.132812 18.910156 Z M 24.132812 18.910156 " fill-opacity="1" fill-rule="evenodd"/></g></svg>